{
  "asset": {
    "version": "2.0",
    "generator": "THREE.GLTFExporter"
  },
  "scenes": [
    {
      "nodes": [
        0
      ]
    }
  ],
  "scene": 0,
  "nodes": [
    {
      "children": [
        7
      ],
      "matrix": [
        0.01,
        0,
        0,
        0,
        0,
        0.01,
        0,
        0,
        0,
        0,
        0.01,
        0,
        0,
        0,
        0,
        1
      ]
    },
    {
      "matrix": [
        0.9963957615394651,
        0.08482621284832534,
        -5.1231751940205e-18,
        0,
        -0.08482621284832534,
        0.9963957615394651,
        -6.017845047584169e-17,
        0,
        0,
        6.039613253960852e-17,
        1,
        0,
        32.17445349369536,
        19.13385191645938,
        1015.8914420168355,
        1
      ],
      "name": "Camera",
      "camera": 0
    },
    {
      "matrix": [
        0,
        -1.6653345369377348e-16,
        1,
        0,
        0.9958617368472391,
        -0.0908812471503353,
        -1.6653345369377348e-16,
        0,
        0.09088124715033524,
        0.9958617368472391,
        0,
        0,
        -514.2723724912493,
        56.51887872241953,
        -6.145647345888706,
        1
      ],
      "name": "Path",
      "mesh": 0
    },
    {
      "matrix": [
        -0.13475215195303836,
        0.019698097973153438,
        0.9906835228670485,
        0,
        0.0026548762072176463,
        0.9998059736450068,
        -0.019518368171655674,
        0,
        -0.9908757788826761,
        0,
        -0.1347783024958038,
        0,
        -10,
        -2,
        0,
        1
      ],
      "name": "Sphere",
      "mesh": 1
    },
    {
      "matrix": [
        0.01228176969585505,
        -0.32706147323338336,
        -0.944923251306447,
        0,
        0.9992956733694645,
        0.03752542051821049,
        0,
        0,
        0.03545864236270912,
        -0.9442577166967397,
        0.3272919937005077,
        0,
        0,
        0,
        0,
        1
      ],
      "name": "Directional Light",
      "extensions": {
        "KHR_lights_punctual": {
          "light": 0
        }
      }
    },
    {
      "matrix": [
        1,
        0,
        0,
        0,
        0,
        1,
        -6.039613253960852e-17,
        0,
        0,
        6.039613253960852e-17,
        1,
        0,
        32.1744534936945,
        19.133851916458983,
        1015.8914420168333,
        1
      ],
      "camera": 1
    },
    {
      "matrix": [
        1,
        0,
        0,
        0,
        0,
        1,
        0,
        0,
        0,
        0,
        1,
        0,
        0,
        1,
        0,
        1
      ],
      "name": "Default Ambient Light"
    },
    {
      "name": "Scene 1",
      "children": [
        1,
        2,
        3,
        4,
        5,
        6
      ]
    }
  ],
  "cameras": [
    {
      "type": "orthographic",
      "orthographic": {
        "xmag": 7.037334,
        "ymag": 4.056241125,
        "zfar": 100000,
        "znear": 0
      },
      "name": "Camera"
    },
    {
      "type": "orthographic",
      "orthographic": {
        "xmag": 10.607653409657694,
        "ymag": 6.114133562511031,
        "zfar": 100000,
        "znear": 0
      }
    }
  ],
  "bufferViews": [
    {
      "buffer": 0,
      "byteOffset": 0,
      "byteLength": 13104,
      "target": 34962,
      "byteStride": 12
    },
    {
      "buffer": 0,
      "byteOffset": 13104,
      "byteLength": 13104,
      "target": 34962,
      "byteStride": 12
    },
    {
      "buffer": 0,
      "byteOffset": 26208,
      "byteLength": 8736,
      "target": 34962,
      "byteStride": 8
    },
    {
      "buffer": 0,
      "byteOffset": 34944,
      "byteLength": 12240,
      "target": 34963
    },
    {
      "buffer": 0,
      "byteOffset": 47184,
      "byteLength": 50700,
      "target": 34962,
      "byteStride": 12
    },
    {
      "buffer": 0,
      "byteOffset": 97884,
      "byteLength": 50700,
      "target": 34962,
      "byteStride": 12
    },
    {
      "buffer": 0,
      "byteOffset": 148584,
      "byteLength": 33800,
      "target": 34962,
      "byteStride": 8
    },
    {
      "buffer": 0,
      "byteOffset": 182384,
      "byteLength": 48384,
      "target": 34963
    }
  ],
  "buffers": [
    {
      "byteLength": 230768,
      "uri": "data:application/octet-stream;base64,"
    }
  ],
  "accessors": [
    {
      "bufferView": 0,
      "componentType": 5126,
      "count": 1092,
      "max": [
        519.7890625,
        1089.15576171875,
        0.015606808476150036
      ],
      "min": [
        -475.13629150390625,
        -44.53770446777344,
        -0.01673920825123787
      ],
      "type": "VEC3"
    },
    {
      "bufferView": 1,
      "componentType": 5126,
      "count": 1092,
      "max": [
        0.9872282147407532,
        0.9871786832809448,
        0.9872452616691589
      ],
      "min": [
        -0.9872282147407532,
        -0.9871786832809448,
        -0.9872452616691589
      ],
      "type": "VEC3"
    },
    {
      "bufferView": 2,
      "componentType": 5126,
      "count": 1092,
      "max": [
        1,
        1
      ],
      "min": [
        0,
        0
      ],
      "type": "VEC2"
    },
    {
      "bufferView": 3,
      "componentType": 5123,
      "count": 6120,
      "max": [
        1091
      ],
      "min": [
        0
      ],
      "type": "SCALAR"
    },
    {
      "bufferView": 4,
      "componentType": 5126,
      "count": 4225,
      "max": [
        201,
        201,
        201
      ],
      "min": [
        -201,
        -201,
        -201
      ],
      "type": "VEC3"
    },
    {
      "bufferView": 5,
      "componentType": 5126,
      "count": 4225,
      "max": [
        1,
        1,
        1
      ],
      "min": [
        -1,
        -1,
        -1
      ],
      "type": "VEC3"
    },
    {
      "bufferView": 6,
      "componentType": 5126,
      "count": 4225,
      "max": [
        1.0078125,
        1
      ],
      "min": [
        -0.0078125,
        0
      ],
      "type": "VEC2"
    },
    {
      "bufferView": 7,
      "componentType": 5123,
      "count": 24192,
      "max": [
        4224
      ],
      "min": [
        0
      ],
      "type": "SCALAR"
    }
  ],
  "meshes": [
    {
      "primitives": [
        {
          "mode": 4,
          "attributes": {
            "POSITION": 0,
            "NORMAL": 1,
            "TEXCOORD_0": 2
          },
          "extras": {
            "path": {
              "points": [
                {
                  "fi": 0,
                  "id": "669c00ee-1deb-43a3-85d0-e44f49715e48",
                  "data": {
                    "position": [
                      27.122911410534883,
                      -44.53270326421074,
                      -0.0027122911269497115
                    ],
                    "controlPrevious": {
                      "position": [
                        254.39367475248923,
                        -50.44007628683852,
                        -0.025439367469461467
                      ]
                    },
                    "controlNext": {
                      "position": [
                        -200.1478519314196,
                        -38.62533024158296,
                        0.020014785215562034
                      ]
                    },
                    "areControlsDirectionsMirrored": true,
                    "roundness": 0
                  }
                },
                {
                  "fi": 1,
                  "id": "d10087e8-819a-4171-ba7f-c20456c73fde",
                  "data": {
                    "position": [
                      -475.1312891275684,
                      531.9234855197702,
                      0.006047815986569277
                    ],
                    "controlPrevious": {
                      "position": [
                        -475.98619254023424,
                        89.32502286967065,
                        0.006047815986569086
                      ]
                    },
                    "controlNext": {
                      "position": [
                        -474.2763857149024,
                        974.5219481698698,
                        0.006047815986569466
                      ]
                    },
                    "areControlsDirectionsMirrored": true,
                    "roundness": 0
                  }
                },
                {
                  "fi": 2,
                  "id": "2c182f25-f819-4e54-91ac-dc785dd63303",
                  "data": {
                    "position": [
                      41.24247911708724,
                      1089.15077944163,
                      7.793062144756063e-15
                    ],
                    "controlPrevious": {
                      "position": [
                        -155.8251415107163,
                        1092.3316234809104,
                        0.019706762090172972
                      ]
                    },
                    "controlNext": {
                      "position": [
                        238.31009974489078,
                        1085.9699354023496,
                        -0.019706762090157388
                      ]
                    },
                    "areControlsDirectionsMirrored": true,
                    "roundness": 0
                  }
                },
                {
                  "fi": 3,
                  "id": "a71c03be-5711-4f1e-b68f-073bd0d149cd",
                  "data": {
                    "position": [
                      519.7840477606719,
                      499.4043528444385,
                      1.1405063569442557e-13
                    ],
                    "controlPrevious": {
                      "position": [
                        536.4709070821416,
                        975.1764216760059,
                        -0.0016686859452152256
                      ]
                    },
                    "controlNext": {
                      "position": [
                        503.09718843920217,
                        23.632284012871082,
                        0.001668685945443327
                      ]
                    },
                    "areControlsDirectionsMirrored": true,
                    "roundness": 0
                  }
                }
              ],
              "lastInsertionPlane": {
                "position": [
                  -10.086044781674232,
                  0,
                  513.6384004147831
                ],
                "normal": [
                  0,
                  1,
                  0
                ]
              },
              "subdivisions": 12,
              "isClosed": true
            },
            "parameters": {
              "width": 994.9153368882403,
              "height": 1133.6834827058408,
              "depth": 0.008760107113518989,
              "subdivisions": 12,
              "roundness": 0,
              "extrudeBevelSize": 0,
              "extrudeBevelSegments": 3,
              "type": "PathGeometry",
              "path": {
                "points": [
                  {
                    "fi": 0,
                    "id": "669c00ee-1deb-43a3-85d0-e44f49715e48",
                    "data": {
                      "position": [
                        27.122911410534883,
                        -44.53270326421074,
                        -0.0027122911269497115
                      ],
                      "controlPrevious": {
                        "position": [
                          254.39367475248923,
                          -50.44007628683852,
                          -0.025439367469461467
                        ]
                      },
                      "controlNext": {
                        "position": [
                          -200.1478519314196,
                          -38.62533024158296,
                          0.020014785215562034
                        ]
                      },
                      "areControlsDirectionsMirrored": true,
                      "roundness": 0
                    }
                  },
                  {
                    "fi": 1,
                    "id": "d10087e8-819a-4171-ba7f-c20456c73fde",
                    "data": {
                      "position": [
                        -475.1312891275684,
                        531.9234855197702,
                        0.006047815986569277
                      ],
                      "controlPrevious": {
                        "position": [
                          -475.98619254023424,
                          89.32502286967065,
                          0.006047815986569086
                        ]
                      },
                      "controlNext": {
                        "position": [
                          -474.2763857149024,
                          974.5219481698698,
                          0.006047815986569466
                        ]
                      },
                      "areControlsDirectionsMirrored": true,
                      "roundness": 0
                    }
                  },
                  {
                    "fi": 2,
                    "id": "2c182f25-f819-4e54-91ac-dc785dd63303",
                    "data": {
                      "position": [
                        41.24247911708724,
                        1089.15077944163,
                        7.793062144756063e-15
                      ],
                      "controlPrevious": {
                        "position": [
                          -155.8251415107163,
                          1092.3316234809104,
                          0.019706762090172972
                        ]
                      },
                      "controlNext": {
                        "position": [
                          238.31009974489078,
                          1085.9699354023496,
                          -0.019706762090157388
                        ]
                      },
                      "areControlsDirectionsMirrored": true,
                      "roundness": 0
                    }
                  },
                  {
                    "fi": 3,
                    "id": "a71c03be-5711-4f1e-b68f-073bd0d149cd",
                    "data": {
                      "position": [
                        519.7840477606719,
                        499.4043528444385,
                        1.1405063569442557e-13
                      ],
                      "controlPrevious": {
                        "position": [
                          536.4709070821416,
                          975.1764216760059,
                          -0.0016686859452152256
                        ]
                      },
                      "controlNext": {
                        "position": [
                          503.09718843920217,
                          23.632284012871082,
                          0.001668685945443327
                        ]
                      },
                      "areControlsDirectionsMirrored": true,
                      "roundness": 0
                    }
                  }
                ],
                "lastInsertionPlane": {
                  "position": [
                    -10.086044781674232,
                    0,
                    513.6384004147831
                  ],
                  "normal": [
                    0,
                    1,
                    0
                  ]
                },
                "subdivisions": 12,
                "isClosed": true
              },
              "extrusion": {
                "shape": {
                  "type": "Ellipse",
                  "width": 0.01,
                  "height": 0.01,
                  "spikes": 16,
                  "angle": 360,
                  "innerRadius": 0
                },
                "depth": 1,
                "offset": 0,
                "bevel": 50,
                "bevelSides": 6,
                "angle": 0,
                "twist": 0,
                "startScale": 1,
                "endScale": 1,
                "capType": "flat"
              }
            },
            "shapeData": {
              "points": [
                -25,
                0,
                -25,
                -13.807118744999999,
                -25,
                13.807118744999999,
                0,
                0,
                25,
                -13.807118744999999,
                25,
                13.807118744999999,
                25,
                0,
                25,
                0,
                25,
                13.807118744999999,
                25,
                -13.807118744999999,
                0,
                0,
                -25,
                13.807118744999999,
                -25,
                -13.807118744999999,
                -25,
                0
              ],
              "shapeHoles": [],
              "isClosed": true,
              "roundness": 0
            },
            "type": "PathGeometry"
          },
          "indices": 3
        }
      ]
    },
    {
      "primitives": [
        {
          "mode": 4,
          "attributes": {
            "POSITION": 4,
            "NORMAL": 5,
            "TEXCOORD_0": 6
          },
          "extras": {
            "parameters": {
              "width": 402,
              "widthSegments": 64,
              "heightSegments": 64,
              "phiStart": 0,
              "phiLength": 6.283185307179586,
              "thetaStart": 0,
              "thetaLength": 180,
              "height": 402,
              "depth": 402,
              "type": "SphereGeometry"
            },
            "type": "SphereGeometry"
          },
          "indices": 7
        }
      ]
    }
  ],
  "extensions": {
    "KHR_lights_punctual": {
      "lights": [
        {
          "name": "Directional Light",
          "color": [
            1,
            1,
            1
          ],
          "intensity": 0.462,
          "type": "directional"
        }
      ]
    }
  },
  "extensionsUsed": [
    "KHR_lights_punctual"
  ]
}